<?xml version="1.0" standalone="no"?>
<!DOCTYPE svg PUBLIC "-//W3C//DTD SVG 20010904//EN"
 "http://www.w3.org/TR/2001/REC-SVG-20010904/DTD/svg10.dtd">
<svg version="1.0" xmlns="http://www.w3.org/2000/svg"
 width="700.000000pt" height="700.000000pt" viewBox="0 0 700.000000 700.000000"
 preserveAspectRatio="xMidYMid meet">
<metadata>
Created by potrace 1.11, written by Peter Selinger 2001-2013
</metadata>
<g transform="translate(0.000000,700.000000) scale(0.100000,-0.100000)"
fill="#000000" stroke="none">
<path d="M3266 6982 c-37 -131 -28 -199 33 -259 32 -31 34 -36 21 -56 -53 -84
-68 -144 -77 -307 -6 -120 -7 -123 -18 -80 -23 89 -54 120 -120 120 -61 0 -70
-10 -55 -56 19 -60 50 -111 76 -124 15 -8 40 -11 70 -6 l47 6 -6 -117 c-7
-153 -26 -210 -133 -388 -139 -232 -194 -397 -215 -639 -19 -219 11 -491 87
-804 19 -78 38 -150 41 -160 9 -22 -94 93 -153 172 -149 198 -218 402 -245
724 -21 247 14 504 92 673 l32 70 41 -45 c55 -60 81 -64 142 -23 26 17 49 37
51 44 2 6 -16 32 -40 57 -54 57 -85 60 -141 14 -44 -36 -42 -29 22 71 19 30
48 84 64 120 17 36 32 68 33 69 2 2 21 -8 42 -22 20 -14 48 -26 60 -26 27 0
75 40 103 86 25 39 19 54 -31 80 -61 31 -98 15 -149 -66 -12 -19 -19 -26 -15
-15 20 60 55 211 65 284 12 77 14 82 34 76 51 -16 65 -16 96 0 23 12 40 34 62
81 36 76 32 85 -40 92 -62 5 -94 -20 -122 -98 l-20 -55 2 50 c3 95 -3 190 -11
171 -5 -14 -10 -4 -20 39 -8 35 -24 69 -41 88 -25 28 -34 32 -79 31 -28 0 -54
-3 -57 -7 -12 -12 37 -134 66 -162 24 -23 37 -27 80 -26 l51 1 -7 -68 c-6 -71
-33 -245 -39 -250 -2 -2 -6 16 -10 40 -13 86 -17 99 -45 127 -31 30 -96 49
-113 32 -6 -6 -5 -32 3 -78 16 -86 57 -133 114 -133 21 0 39 -6 42 -13 5 -14
-52 -206 -66 -221 -5 -4 -13 17 -20 49 -8 36 -22 68 -40 88 -25 28 -34 32 -79
31 -28 0 -54 -3 -57 -7 -11 -11 37 -135 63 -161 25 -26 41 -30 96 -26 l28 2
-22 -44 c-12 -24 -38 -68 -59 -98 -113 -169 -171 -304 -214 -505 l-24 -110 0
216 c-1 154 -5 236 -16 290 -9 40 -16 75 -16 77 0 1 13 -4 30 -13 60 -31 104
-9 149 75 l32 60 -46 21 c-71 31 -112 11 -150 -76 l-22 -50 -23 45 c-12 25
-38 64 -56 87 l-34 41 40 -5 c35 -5 43 -2 74 29 21 21 40 56 52 91 21 68 15
77 -49 77 -55 0 -103 -48 -112 -113 -4 -26 -11 -50 -16 -52 -16 -11 -109 143
-109 181 0 6 18 14 39 18 64 10 101 66 116 179 l6 47 -33 0 c-76 0 -128 -66
-128 -162 -1 -77 -17 -41 -32 73 -10 69 -15 85 -19 64 -5 -27 -7 -28 -14 -10
-37 94 -45 106 -81 121 -34 14 -41 14 -80 -1 l-43 -16 28 -61 c40 -91 77 -112
159 -93 l32 8 0 -55 c0 -30 9 -90 20 -133 24 -93 24 -102 4 -55 -35 81 -91
108 -152 75 -58 -31 -58 -29 -22 -84 53 -84 96 -100 155 -61 17 11 33 20 36
20 4 0 35 -42 69 -92 51 -76 56 -87 28 -60 -47 44 -86 44 -127 -3 -17 -20 -31
-40 -31 -44 0 -5 16 -21 37 -36 49 -38 88 -37 124 3 16 18 33 32 37 32 26 0
88 -199 80 -253 -3 -17 -9 -10 -27 31 -28 61 -52 82 -99 82 -30 0 -92 -24 -92
-36 0 -18 54 -106 76 -123 31 -24 81 -27 110 -6 12 8 24 11 28 8 8 -8 8 -391
0 -421 -6 -22 -8 -22 -33 16 -51 76 -102 130 -186 197 -47 38 -85 72 -85 77 0
4 16 28 35 53 19 25 37 62 41 81 10 52 -2 126 -26 174 -26 50 -34 46 -80 -45
-29 -56 -32 -72 -27 -117 3 -30 13 -70 23 -91 10 -20 15 -39 12 -43 -3 -3 -28
6 -55 19 -26 13 -66 30 -88 37 -22 7 -44 16 -48 20 -4 4 4 30 19 58 47 90 42
169 -14 255 -14 20 -28 37 -32 37 -15 0 -60 -131 -60 -174 0 -28 10 -64 30
-102 16 -32 27 -60 25 -63 -13 -13 -171 78 -181 104 -3 7 11 34 30 59 63 83
69 173 18 273 l-19 37 -39 -58 c-46 -70 -56 -145 -30 -225 9 -27 16 -53 16
-57 0 -13 -32 20 -78 83 -54 74 -55 90 -6 147 53 62 59 153 15 250 l-22 50
-34 -52 c-19 -28 -40 -72 -47 -97 -13 -47 -12 -49 27 -185 7 -24 7 -24 -8 -5
-22 27 -21 16 4 -39 26 -60 21 -80 -18 -65 -67 25 -127 -33 -147 -143 l-7 -38
55 0 c83 0 116 34 141 143 6 28 7 28 55 -42 28 -38 65 -82 84 -97 38 -30 38
-44 2 -44 -29 0 -72 -33 -91 -69 -7 -15 -17 -51 -21 -79 l-7 -52 42 0 c33 0
49 6 71 29 29 28 32 36 47 122 l8 46 95 -53 c52 -29 96 -57 98 -63 2 -5 -13
-14 -32 -21 -69 -23 -106 -93 -106 -204 l0 -58 33 6 c38 7 73 31 101 70 17 22
22 46 24 116 l4 89 51 -26 c64 -32 156 -94 180 -121 22 -24 15 -42 -15 -42
-32 0 -79 -40 -98 -84 -10 -23 -21 -71 -25 -108 l-7 -68 34 6 c90 17 131 67
136 167 2 40 8 76 12 81 14 14 99 -104 150 -209 53 -109 93 -242 140 -463 38
-183 39 -174 -7 -166 -73 13 -209 55 -271 84 -72 34 -152 88 -152 104 0 6 19
22 41 34 60 34 83 92 77 192 -2 42 -8 82 -12 88 -5 9 -22 1 -56 -28 -66 -55
-85 -106 -76 -201 l6 -71 -23 19 c-13 10 -54 46 -93 81 -52 47 -66 65 -59 76
62 84 69 100 72 160 3 46 -2 74 -19 115 -13 30 -28 56 -34 58 -6 2 -27 -29
-47 -68 -49 -94 -49 -141 -2 -252 7 -18 6 -18 -31 1 -21 10 -70 30 -108 43
-37 13 -70 29 -73 36 -2 6 7 28 21 50 57 87 50 199 -19 287 -18 24 -17 25 -49
-48 -35 -80 -35 -154 0 -225 15 -28 24 -55 21 -58 -11 -10 -95 47 -134 91 -50
56 -107 162 -97 179 4 6 27 29 50 50 24 20 48 54 55 74 13 40 8 142 -10 187
l-12 29 -39 -38 c-67 -66 -82 -117 -65 -235 4 -30 5 -53 2 -50 -2 3 -23 49
-47 102 -23 54 -56 121 -74 150 -36 60 -35 72 8 136 50 73 44 197 -12 270
l-18 24 -32 -60 c-52 -98 -52 -140 3 -277 5 -12 -11 -2 -41 26 -55 51 -113 94
-120 87 -2 -3 7 -15 21 -28 36 -34 31 -40 -23 -33 -41 5 -52 2 -75 -18 -15
-13 -38 -50 -52 -81 l-25 -58 22 -11 c12 -6 39 -12 59 -13 59 -1 92 39 125
153 12 38 102 -100 165 -252 48 -115 48 -121 7 -111 -81 18 -119 -4 -159 -92
-16 -35 -29 -68 -29 -73 0 -13 56 -31 96 -31 47 0 89 40 110 103 9 29 19 55
21 60 2 4 26 -38 53 -93 54 -109 117 -186 187 -227 47 -27 48 -43 2 -43 -43 0
-86 -25 -105 -62 -16 -30 -43 -127 -44 -155 0 -21 81 -16 118 7 37 23 71 88
72 135 0 46 11 75 26 75 23 0 166 -75 220 -115 66 -50 124 -107 119 -115 -3
-4 -20 -11 -38 -14 -64 -12 -101 -75 -112 -194 -7 -67 -6 -72 12 -72 35 0 107
44 127 79 12 21 21 60 24 107 2 41 8 74 12 74 4 0 15 -10 26 -22 42 -47 171
-141 243 -177 42 -21 123 -55 180 -76 56 -20 137 -51 179 -69 l76 -32 106
-167 c219 -343 297 -514 385 -852 15 -55 29 -108 32 -118 4 -15 -10 -11 -74
21 -84 42 -183 77 -250 87 -33 5 -52 17 -96 63 -88 94 -96 124 -34 136 48 9
103 71 111 125 3 22 9 59 12 81 l6 40 -37 0 c-47 0 -101 -32 -122 -73 -9 -18
-18 -62 -21 -99 -8 -108 -16 -97 -99 131 -52 142 -52 167 2 231 49 58 60 108
45 195 -7 39 -15 76 -19 83 -11 19 -55 -19 -88 -75 -31 -53 -35 -135 -9 -196
27 -66 7 -73 -31 -10 -43 72 -117 149 -188 194 -48 30 -54 39 -61 77 -3 24 -4
62 -1 85 10 77 -10 135 -66 188 -27 27 -53 47 -57 44 -4 -2 -12 -31 -19 -63
-20 -102 7 -182 77 -227 31 -20 54 -53 30 -42 -103 45 -211 87 -215 83 -3 -2
10 -12 27 -21 22 -11 29 -20 22 -27 -7 -7 -17 -6 -30 1 -39 21 -82 13 -113
-20 -27 -28 -65 -126 -54 -137 2 -3 27 -7 55 -10 65 -6 93 12 128 86 15 32 35
58 44 60 32 6 262 -166 246 -183 -4 -4 -23 6 -43 24 -48 41 -77 48 -117 24
-37 -21 -92 -97 -85 -116 3 -7 28 -25 56 -41 65 -35 92 -30 146 28 59 64 76
66 118 14 19 -24 47 -68 62 -98 34 -67 97 -251 89 -259 -3 -3 -19 11 -36 32
-64 80 -124 82 -193 6 -36 -40 -36 -41 -18 -61 34 -39 96 -78 124 -78 16 0 43
14 70 35 23 20 49 35 57 33 8 -2 29 -37 47 -78 17 -41 45 -97 63 -125 l31 -50
-118 -12 c-65 -6 -143 -20 -175 -31 -40 -13 -59 -16 -61 -8 -2 6 -25 90 -50
186 -52 196 -72 248 -128 337 -60 97 -134 158 -272 223 -143 69 -246 139 -307
212 -48 57 -98 128 -98 140 0 4 21 21 46 39 76 52 101 138 71 251 l-12 48 -47
-40 c-63 -54 -83 -107 -75 -200 3 -39 4 -70 1 -70 -3 0 -33 57 -66 128 -34 70
-77 151 -95 180 -18 29 -33 58 -33 64 0 6 15 34 33 62 28 45 32 59 32 121 0
55 -5 81 -25 118 -13 27 -28 51 -32 53 -4 3 -22 -24 -40 -58 -41 -80 -44 -160
-10 -225 12 -23 22 -47 22 -52 0 -11 -166 82 -198 112 -57 53 -129 199 -118
241 3 12 24 32 47 44 59 34 83 92 77 187 -7 109 -14 114 -75 58 -61 -57 -78
-105 -69 -203 l5 -65 -13 47 c-19 65 -60 132 -97 159 -29 21 -31 25 -25 68 19
128 19 147 -2 194 -13 29 -36 57 -64 77 l-43 31 -8 -33 c-4 -18 -8 -62 -9 -98
-2 -73 23 -137 66 -165 30 -20 43 -47 18 -38 -9 3 10 -20 43 -51 47 -45 54
-56 35 -51 -92 25 -115 17 -159 -54 l-30 -50 33 -20 c69 -43 126 -21 161 62 8
20 20 37 25 37 6 0 10 -2 10 -5 0 -2 13 -56 29 -119 50 -194 103 -277 225
-355 36 -22 68 -46 72 -53 5 -7 -3 -5 -19 5 -55 35 -103 19 -143 -48 -31 -53
-24 -68 38 -87 34 -10 42 -9 66 9 15 11 36 37 48 59 11 21 27 39 35 39 20 0
69 -87 119 -212 78 -195 165 -349 229 -407 11 -11 21 -22 21 -25 0 -9 -146 -2
-205 10 -27 5 -68 17 -91 25 -40 15 -41 17 -54 82 -18 95 -65 235 -96 287 -35
61 -99 115 -194 165 -47 24 -80 47 -80 56 0 9 12 36 26 61 35 58 36 131 5 196
-37 76 -45 76 -75 2 -32 -81 -33 -125 -1 -194 14 -30 24 -58 23 -63 -4 -12
-113 64 -170 120 -55 53 -57 66 -27 155 23 69 21 115 -10 175 -17 33 -81 104
-81 90 0 -2 -9 -40 -20 -82 -24 -93 -16 -148 30 -213 40 -55 38 -64 -5 -23
-63 61 -46 25 31 -64 74 -86 86 -108 46 -87 -32 17 -87 13 -115 -9 -14 -11
-39 -45 -57 -76 -35 -62 -35 -62 29 -90 52 -24 96 -11 131 37 16 22 32 54 35
70 4 17 13 33 20 35 7 3 41 -15 75 -40 34 -25 89 -62 123 -83 193 -116 242
-183 292 -396 l14 -59 -27 23 c-15 13 -81 76 -147 139 -200 191 -334 239 -546
195 -40 -9 -74 -13 -77 -10 -3 3 2 37 12 75 29 110 4 194 -72 249 l-29 20 -12
-56 c-24 -121 -11 -184 52 -250 17 -18 28 -35 25 -39 -9 -8 -78 13 -123 39
-47 27 -53 49 -31 114 21 61 20 129 -3 178 -22 48 -77 103 -89 89 -12 -13 -32
-109 -32 -152 0 -44 29 -109 59 -136 21 -19 30 -43 11 -31 -23 14 -7 -15 30
-58 22 -25 40 -47 40 -50 0 -2 -19 -7 -42 -10 -72 -10 -115 -70 -134 -189 l-7
-38 51 0 c43 0 57 5 85 30 35 30 57 88 57 147 0 47 14 52 78 30 43 -14 75 -18
130 -15 39 3 72 1 72 -4 0 -5 -9 -26 -20 -48 -32 -62 -27 -139 12 -211 18 -33
36 -59 39 -59 4 0 16 22 28 49 36 84 25 190 -23 230 -9 8 -16 22 -16 33 0 19
6 20 73 16 62 -3 87 -10 159 -45 70 -35 99 -58 177 -138 l93 -96 -59 -46 c-61
-48 -162 -103 -188 -103 -19 0 -19 9 1 77 24 83 15 140 -34 215 l-41 62 -22
-49 c-32 -71 -37 -161 -11 -211 11 -21 29 -48 41 -58 59 -53 -3 -60 -137 -16
-50 16 -100 30 -110 30 -27 0 -40 19 -52 76 -21 96 -60 137 -144 150 l-49 7 7
-54 c9 -65 35 -127 65 -154 14 -12 43 -22 74 -25 l52 -5 -47 -28 c-26 -15 -59
-42 -73 -61 -28 -37 -33 -55 -10 -36 21 18 19 4 -6 -29 -32 -44 -40 -95 -23
-160 8 -31 19 -60 23 -64 5 -5 21 8 36 28 37 48 44 116 19 185 -14 38 -16 55
-8 68 19 30 87 62 132 62 41 0 112 -22 112 -35 0 -4 -12 -22 -27 -41 -34 -46
-41 -114 -18 -185 l18 -53 28 32 c31 35 53 102 44 135 -3 12 -13 39 -22 60 -9
20 -13 40 -10 43 3 3 29 -2 58 -11 51 -17 139 -17 183 1 16 6 15 1 -8 -38 -34
-58 -35 -124 -3 -193 l23 -50 28 48 c35 59 37 131 7 183 -12 19 -21 39 -21 44
0 4 26 23 58 40 31 18 81 50 111 71 l53 38 52 -44 c59 -52 189 -119 259 -135
27 -6 115 -17 196 -25 81 -8 172 -22 202 -31 151 -45 258 -134 326 -271 54
-106 75 -206 77 -351 l1 -115 -55 -38 -55 -37 -35 37 c-19 20 -72 61 -117 91
-93 61 -99 74 -54 126 29 33 51 88 51 130 0 28 -39 156 -51 169 -19 20 -82
-82 -93 -151 -5 -30 -2 -57 14 -100 36 -100 34 -102 -24 -42 -65 68 -176 224
-176 248 0 10 7 24 17 31 23 20 43 72 43 115 0 43 -30 144 -42 144 -5 0 -22
-21 -38 -47 -35 -55 -41 -133 -14 -184 23 -46 12 -44 -24 3 -32 41 -125 118
-144 118 -6 0 8 -20 31 -45 22 -24 41 -46 41 -49 0 -2 -17 5 -38 15 -40 21
-75 18 -106 -9 -24 -21 -68 -114 -58 -123 13 -11 75 -29 102 -29 37 0 75 32
94 80 9 22 20 40 25 40 11 0 182 -272 176 -278 -2 -3 -23 12 -46 32 -70 59
-132 43 -189 -50 l-22 -34 24 -20 c12 -11 42 -29 65 -41 42 -20 44 -20 80 -2
21 10 47 32 58 50 28 45 46 49 70 16 46 -64 101 -120 188 -192 82 -68 89 -76
67 -80 -44 -6 -131 20 -270 79 -74 32 -155 64 -179 71 -68 20 -153 112 -230
250 -106 189 -125 219 -160 261 -28 33 -32 43 -23 57 55 77 61 151 20 241
l-24 55 -29 -44 c-42 -63 -46 -148 -11 -213 14 -27 23 -48 21 -48 -2 0 -26 13
-52 30 -67 43 -73 37 -15 -15 57 -52 128 -143 118 -152 -4 -4 -20 9 -36 29
-57 68 -124 67 -184 -4 -20 -23 -36 -45 -36 -49 0 -4 23 -26 51 -48 72 -57
106 -56 167 4 25 25 49 45 54 45 10 0 60 -106 84 -175 l14 -40 -32 37 c-36 41
-78 61 -105 51 -10 -4 -34 -18 -53 -32 -19 -14 -36 -26 -38 -27 -9 -5 31 -65
58 -88 45 -37 81 -34 132 12 23 21 43 32 45 25 2 -6 21 -40 42 -75 l39 -63
-61 -8 c-51 -7 -109 -26 -193 -63 -7 -3 -34 37 -65 96 -60 113 -141 210 -201
241 -38 20 -40 22 -34 57 4 20 9 69 12 107 5 67 4 72 -31 128 -20 31 -40 57
-44 57 -14 0 -43 -101 -43 -149 1 -54 18 -95 51 -125 20 -19 29 -46 14 -46
-37 0 -189 34 -195 43 -4 7 -8 35 -8 63 0 61 -15 111 -44 142 -24 27 -75 56
-84 48 -3 -3 -7 -30 -10 -60 -6 -78 24 -142 78 -164 44 -19 52 -32 18 -32 -21
-1 -20 -2 7 -17 17 -9 66 -29 110 -44 65 -23 74 -28 47 -29 -49 0 -87 -42
-102 -113 -7 -31 -10 -60 -7 -64 12 -11 66 -7 93 7 31 17 49 50 59 108 4 24
13 46 19 48 34 13 111 -40 164 -115 44 -60 124 -219 117 -231 -18 -30 -215
-69 -215 -42 0 4 11 24 25 44 49 72 51 145 7 248 l-18 44 -26 -35 c-54 -73
-63 -157 -23 -235 34 -67 20 -77 -51 -40 -37 19 -81 58 -132 114 -42 46 -96
95 -120 109 -55 32 -62 47 -62 129 0 84 -25 138 -81 177 -23 16 -43 26 -46 23
-12 -12 -15 -136 -4 -168 12 -37 45 -73 82 -92 40 -20 34 -36 -13 -36 -27 0
-59 -9 -85 -24 l-42 -25 -23 28 c-13 16 -30 42 -40 59 -9 17 -30 38 -46 46
-28 14 -35 14 -81 -1 -28 -9 -51 -19 -51 -24 0 -25 42 -99 70 -122 38 -32 49
-33 101 -7 32 17 40 18 45 7 4 -11 14 -10 57 4 115 40 175 17 300 -114 l88
-92 -38 -34 c-41 -36 -140 -87 -151 -77 -3 4 -5 36 -4 72 3 80 -15 123 -68
158 l-38 25 -6 -31 c-18 -89 4 -159 58 -185 44 -20 50 -46 8 -34 -15 5 -50 20
-78 34 -45 23 -51 24 -50 9 1 -13 -6 -16 -29 -15 -70 6 -116 -40 -133 -134
l-9 -53 38 0 c76 0 121 43 135 129 8 47 26 61 52 38 34 -30 87 -49 134 -50 39
-1 48 -4 48 -18 0 -10 -4 -21 -10 -24 -5 -3 -17 -30 -25 -60 -13 -43 -14 -62
-5 -97 12 -45 54 -118 69 -118 5 0 19 27 31 60 29 79 25 153 -13 208 -34 48
-34 57 1 71 15 6 48 29 72 50 l45 38 55 -31 c48 -27 65 -31 130 -31 41 0 91 3
110 7 33 7 29 2 -68 -91 -57 -55 -107 -100 -110 -101 -3 0 -12 19 -19 43 -19
67 -55 97 -114 97 -47 0 -49 -1 -49 -27 1 -41 34 -109 64 -128 19 -12 36 -15
66 -10 22 4 40 5 40 3 0 -1 -11 -30 -25 -63 -30 -73 -33 -106 -4 -48 33 67
169 207 185 191 2 -3 -7 -25 -21 -49 -34 -61 -34 -137 1 -207 14 -29 29 -52
34 -52 4 0 19 26 34 59 35 79 35 146 -1 213 l-27 49 65 57 c35 31 83 75 105
99 23 24 59 50 80 59 52 22 181 30 240 15 51 -13 194 -79 194 -90 0 -3 -28
-17 -63 -30 -34 -13 -89 -41 -123 -62 -34 -22 -64 -39 -66 -39 -3 0 -11 20
-17 44 -17 69 -47 98 -109 104 -46 4 -52 2 -52 -14 0 -38 21 -94 46 -124 21
-25 33 -30 68 -30 l42 0 -71 -72 c-77 -80 -71 -80 -89 2 -10 45 -40 71 -91 81
-27 5 -51 7 -53 4 -11 -11 21 -117 43 -143 18 -21 31 -27 64 -26 23 1 41 -1
41 -3 0 -3 -10 -19 -22 -36 l-22 -32 25 20 c13 10 43 37 67 59 42 41 55 34 27
-14 -33 -58 -10 -175 43 -223 20 -19 21 -18 42 50 29 93 23 123 -42 216 -11
16 -8 22 22 47 45 37 170 104 170 92 0 -6 -13 -36 -30 -67 -41 -78 -41 -140 1
-223 17 -34 34 -62 38 -62 15 0 64 124 69 171 5 52 -11 111 -39 148 -11 13
-19 29 -19 37 0 7 42 26 97 45 l97 32 81 -29 c69 -25 94 -29 182 -29 l102 0
193 97 c106 54 215 103 241 109 28 7 81 9 125 6 177 -13 394 -180 463 -355 22
-54 23 -75 30 -432 4 -232 13 -426 23 -510 9 -74 19 -200 22 -280 15 -348 -82
-692 -269 -956 -34 -49 -115 -142 -180 -207 -65 -66 -116 -121 -115 -122 25
-21 97 -45 136 -45 49 0 72 10 207 85 47 26 53 27 80 14 22 -11 35 -28 50 -69
29 -78 42 -99 70 -106 37 -9 63 4 130 66 34 31 79 63 99 70 84 27 185 -6 314
-105 39 -30 72 -52 72 -48 0 5 -6 28 -14 53 -16 55 -30 160 -21 160 4 0 20
-11 37 -25 44 -37 123 -56 217 -53 l82 3 -62 80 c-235 303 -342 578 -371 951
-10 125 -9 206 5 475 9 178 19 410 22 514 6 216 23 348 59 453 73 214 181 308
411 360 213 48 249 43 480 -72 94 -47 194 -92 224 -100 97 -28 202 -18 311 31
l45 20 100 -34 c55 -19 102 -36 104 -38 2 -2 -11 -32 -28 -66 -40 -81 -40
-127 0 -224 18 -41 35 -72 40 -69 27 16 62 99 66 157 4 55 2 68 -26 121 -17
32 -31 62 -31 68 0 11 117 -51 167 -89 39 -30 41 -42 9 -72 -14 -13 -30 -45
-36 -72 -11 -43 -9 -58 10 -120 21 -71 21 -71 42 -53 53 49 76 166 43 224 -28
48 -15 55 28 14 23 -22 53 -49 66 -59 l25 -20 -22 29 c-29 38 -28 49 6 42 56
-12 103 40 117 132 l7 43 -44 -7 c-23 -4 -50 -10 -59 -15 -20 -10 -47 -65 -54
-110 l-6 -37 -74 76 c-41 42 -75 77 -75 77 0 0 20 -1 43 -3 39 -3 47 0 70 27
26 31 47 87 47 125 0 16 -6 18 -52 14 -62 -6 -92 -35 -109 -104 -6 -24 -14
-44 -18 -44 -3 0 -19 9 -36 21 -40 28 -186 99 -202 99 -31 0 -8 20 60 53 100
49 154 61 245 54 98 -6 139 -23 199 -84 26 -27 75 -72 108 -101 57 -49 59 -52
46 -74 -51 -82 -55 -149 -15 -239 15 -33 30 -59 34 -59 5 0 20 23 34 52 36 71
36 145 0 205 -14 25 -23 47 -20 50 16 17 151 -122 185 -190 29 -58 26 -25 -4
48 -14 33 -25 62 -25 63 0 2 18 1 40 -3 30 -5 47 -2 66 10 30 19 63 87 64 128
0 26 -2 27 -47 27 -63 -1 -90 -23 -113 -91 -10 -30 -21 -52 -23 -50 -3 1 -52
48 -109 102 -85 82 -98 98 -73 92 17 -5 66 -8 110 -8 72 0 86 3 136 32 l56 32
28 -29 c15 -16 47 -39 71 -52 24 -12 44 -27 44 -32 0 -6 -12 -27 -27 -48 -38
-55 -42 -129 -13 -208 12 -33 26 -60 31 -60 16 0 58 75 68 121 8 36 7 58 -4
97 -9 28 -20 54 -25 57 -6 3 -10 14 -10 24 0 14 9 17 51 18 38 1 62 8 101 32
28 18 56 30 63 27 7 -2 15 -23 19 -46 14 -88 57 -130 134 -130 l39 0 -8 46
c-19 100 -62 147 -131 142 -26 -2 -33 1 -32 14 1 15 -5 14 -50 -9 -28 -14 -63
-29 -78 -34 -42 -12 -36 14 8 34 54 26 76 96 58 185 l-6 31 -38 -25 c-53 -35
-71 -78 -68 -158 1 -36 -1 -68 -5 -72 -10 -11 -129 51 -159 83 l-28 29 88 92
c124 130 184 153 299 113 43 -14 53 -15 57 -4 5 11 13 10 45 -7 55 -28 69 -26
110 18 32 34 69 107 59 117 -2 2 -24 9 -49 16 -63 17 -94 6 -126 -44 -15 -23
-35 -51 -45 -63 l-19 -21 -46 24 c-26 12 -64 23 -85 23 -49 0 -50 19 -1 45 63
35 78 65 78 160 0 46 -3 86 -7 90 -13 13 -88 -50 -108 -91 -14 -28 -20 -60
-20 -108 0 -82 -7 -97 -63 -129 -24 -14 -78 -64 -120 -110 -51 -56 -95 -94
-131 -113 -73 -38 -87 -26 -52 41 41 76 33 161 -22 234 l-26 35 -18 -44 c-44
-103 -42 -176 7 -248 14 -20 25 -40 25 -44 0 -27 -197 12 -215 42 -8 12 68
161 117 232 45 64 102 108 144 111 26 2 29 -2 39 -48 14 -60 31 -90 62 -106
25 -13 79 -17 90 -6 3 4 0 33 -7 64 -15 71 -53 113 -102 113 -27 1 -18 6 47
29 44 15 94 35 110 44 27 15 28 16 8 17 -35 0 -27 13 17 32 31 13 45 27 60 60
19 42 25 112 14 155 l-6 21 -43 -26 c-58 -35 -76 -69 -84 -162 -4 -44 -9 -81
-12 -84 -2 -3 -36 -10 -74 -16 -39 -6 -82 -13 -97 -16 -35 -7 -38 14 -7 42 33
30 50 71 51 125 0 48 -29 149 -43 149 -4 0 -24 -26 -44 -57 -35 -56 -36 -61
-31 -128 3 -38 8 -87 12 -107 6 -35 4 -37 -34 -57 -61 -31 -142 -129 -201
-241 -31 -60 -58 -99 -65 -96 -89 40 -150 59 -198 64 l-58 5 21 31 c11 17 29
50 40 74 11 23 23 42 26 42 3 0 23 -16 44 -35 48 -43 85 -45 129 -9 27 23 67
83 58 88 -2 1 -19 13 -38 27 -19 14 -43 28 -53 32 -27 10 -69 -10 -104 -51
-18 -20 -33 -32 -32 -27 0 20 84 199 95 202 5 2 31 -17 56 -42 62 -60 95 -61
167 -3 28 23 51 44 51 48 0 4 -16 25 -36 48 -60 71 -127 72 -184 4 -16 -20
-32 -33 -36 -29 -10 9 61 100 118 152 58 52 52 58 -15 15 -26 -16 -50 -30 -52
-30 -2 0 7 21 21 48 35 65 31 150 -11 213 l-29 44 -25 -55 c-40 -88 -34 -164
21 -241 9 -14 4 -25 -29 -65 -23 -27 -69 -101 -103 -164 -35 -63 -79 -140 -99
-170 -41 -64 -137 -160 -159 -160 -8 0 -88 -31 -176 -69 -164 -70 -251 -96
-296 -90 -22 4 -15 12 67 80 87 72 142 128 188 192 24 33 43 29 67 -12 21 -38
62 -64 99 -64 24 0 65 22 128 69 7 6 -41 74 -70 99 -44 37 -86 33 -138 -11
-23 -20 -44 -35 -46 -32 -6 6 165 278 176 278 5 0 16 -18 25 -40 19 -48 57
-80 94 -80 27 0 89 18 102 29 12 11 -38 106 -67 129 -34 27 -50 27 -98 3 -20
-10 -37 -16 -37 -13 0 4 19 26 42 49 23 24 37 43 31 43 -19 0 -112 -76 -145
-118 -36 -47 -47 -49 -24 -3 27 51 21 129 -14 184 -16 26 -33 47 -38 47 -12 0
-42 -101 -42 -143 0 -44 15 -85 42 -114 29 -31 21 -52 -70 -173 -122 -162
-174 -201 -120 -91 29 60 29 141 0 196 -32 61 -59 92 -71 80 -12 -13 -51 -141
-51 -169 0 -42 22 -97 51 -130 46 -53 40 -64 -66 -135 -53 -35 -106 -76 -118
-92 l-22 -28 -55 38 -55 38 1 114 c2 326 145 546 403 623 30 9 121 23 202 31
81 8 168 19 193 25 90 20 210 85 281 151 l30 28 90 -60 c49 -33 99 -62 112
-65 29 -8 29 -23 2 -69 -31 -52 -29 -122 7 -182 l28 -48 23 50 c32 69 31 135
-3 193 -23 39 -24 44 -8 38 44 -18 132 -18 183 -1 29 9 55 14 58 11 3 -3 -1
-23 -10 -43 -26 -61 -29 -80 -18 -119 10 -37 50 -104 63 -104 3 0 14 23 23 51
23 69 16 138 -18 183 -15 19 -27 37 -27 40 0 3 13 12 30 21 65 34 187 5 212
-50 9 -20 7 -33 -7 -65 -32 -72 -18 -157 34 -204 20 -18 21 -18 30 6 36 95 32
176 -10 214 -22 20 -26 42 -4 24 23 -19 18 -1 -10 36 -14 19 -47 46 -73 61
l-47 28 50 6 c28 3 58 9 67 13 25 11 66 102 74 165 l7 54 -45 -6 c-25 -3 -57
-11 -70 -18 -31 -14 -64 -69 -78 -134 -13 -57 -25 -75 -52 -75 -10 0 -60 -13
-110 -30 -138 -46 -194 -37 -133 20 38 35 59 101 52 163 -6 63 -35 139 -51
134 -18 -6 -75 -107 -82 -146 -6 -31 -2 -59 23 -168 7 -31 -14 -30 -80 3 -50
25 -176 114 -177 124 0 14 162 172 210 203 73 48 159 77 232 77 50 0 58 -3 58
-19 0 -10 -7 -24 -16 -32 -48 -40 -59 -146 -23 -230 12 -27 24 -49 28 -49 3 0
21 26 39 59 39 72 44 149 12 211 -11 22 -20 43 -20 47 0 4 44 8 98 8 72 1 105
5 129 18 31 16 33 16 41 0 5 -10 12 -42 15 -71 7 -63 29 -103 70 -127 29 -17
101 -24 114 -11 4 3 -1 40 -11 80 -23 100 -68 146 -142 146 -13 0 -24 3 -24 6
0 4 18 26 40 50 38 41 54 74 28 58 -6 -4 0 8 15 27 56 74 67 131 45 231 -16
72 -22 77 -59 42 -64 -60 -85 -155 -54 -244 23 -65 20 -87 -17 -110 -36 -22
-129 -53 -136 -45 -2 2 14 25 36 50 54 62 66 114 47 214 -8 41 -16 76 -19 78
-2 2 -21 -11 -42 -29 -68 -60 -91 -153 -59 -243 14 -38 19 -75 11 -75 -2 0
-39 7 -82 16 -140 29 -272 6 -387 -68 -29 -18 -112 -91 -185 -161 -74 -71
-136 -127 -138 -125 -2 3 8 46 21 98 47 175 100 243 261 341 45 27 110 70 144
95 34 25 68 43 75 40 7 -2 16 -18 20 -35 11 -51 60 -109 99 -116 34 -7 126 24
126 42 0 14 -71 127 -88 140 -21 15 -86 17 -114 2 -36 -19 -32 1 8 44 61 64
127 147 117 147 -5 0 -24 -16 -43 -35 -18 -19 -35 -33 -37 -31 -2 2 10 23 26
47 45 64 54 126 30 218 -10 41 -19 77 -19 79 0 14 -64 -57 -81 -90 -31 -60
-33 -106 -10 -175 31 -93 29 -104 -36 -163 -63 -57 -154 -122 -162 -115 -2 3
6 26 19 52 37 74 38 136 3 213 l-29 65 -27 -41 c-15 -22 -33 -66 -39 -96 -11
-54 -11 -58 20 -121 18 -35 32 -69 32 -75 0 -6 -40 -32 -89 -57 -150 -77 -213
-171 -269 -395 l-29 -115 -57 -23 c-40 -16 -91 -26 -164 -31 -59 -4 -109 -6
-111 -4 -3 2 11 20 31 41 73 76 130 180 218 394 55 135 105 221 124 215 6 -2
19 -20 28 -39 20 -42 62 -78 92 -78 26 0 86 36 86 51 0 17 -58 96 -75 103 -25
9 -64 7 -86 -4 -41 -22 -16 0 46 40 125 82 182 170 224 345 37 158 40 162 66
98 35 -83 92 -105 161 -63 l33 21 -32 50 c-44 72 -65 79 -157 54 -19 -5 -12 6
35 51 33 31 52 54 43 51 -25 -9 -12 18 18 38 43 28 68 92 66 165 -1 36 -5 80
-9 98 l-8 33 -43 -31 c-28 -20 -51 -48 -64 -77 -21 -47 -21 -66 -2 -194 6 -43
4 -47 -25 -68 -37 -27 -78 -94 -97 -159 l-13 -47 5 65 c9 98 -8 146 -69 202
-62 56 -68 52 -75 -57 -6 -95 18 -153 77 -187 23 -12 44 -32 47 -44 7 -26 -34
-128 -76 -189 -17 -25 -55 -61 -83 -79 -105 -66 -157 -95 -157 -86 0 5 10 29
22 52 35 66 31 146 -10 226 -18 34 -36 61 -40 58 -17 -10 -55 -101 -60 -142
-7 -61 4 -105 38 -155 16 -24 30 -49 30 -56 0 -7 -12 -29 -26 -50 -15 -21 -57
-102 -95 -180 -37 -79 -70 -143 -73 -143 -3 0 -2 31 1 70 8 93 -12 146 -75
200 l-47 40 -13 -48 c-16 -57 -10 -148 12 -190 9 -18 34 -44 56 -58 21 -14 41
-32 44 -39 6 -17 -79 -139 -131 -186 -67 -61 -158 -117 -280 -175 -101 -47
-125 -63 -187 -127 -95 -97 -134 -178 -197 -415 -28 -103 -52 -192 -54 -198
-2 -8 -21 -5 -61 8 -32 11 -110 25 -175 31 l-118 12 31 50 c18 28 46 84 63
125 18 41 39 76 47 78 8 2 34 -13 57 -33 57 -46 86 -46 149 5 28 21 53 44 56
49 10 16 -62 89 -99 101 -43 14 -79 -3 -123 -57 -17 -21 -33 -35 -36 -32 -9 9
52 185 90 261 19 37 48 83 65 103 39 44 57 40 114 -21 54 -58 81 -63 146 -28
28 16 53 34 56 40 7 19 -44 93 -80 115 -42 26 -81 18 -124 -23 -18 -17 -36
-28 -40 -24 -11 11 59 71 159 140 93 64 96 63 133 -20 30 -68 60 -88 125 -82
28 3 53 7 55 10 11 11 -27 109 -54 137 -31 33 -74 41 -112 21 -31 -17 -45 0
-18 22 l24 19 -25 -6 c-14 -4 -61 -22 -104 -41 -102 -43 -110 -38 -32 20 54
41 69 83 64 181 -2 45 -8 86 -12 93 -9 15 -88 -49 -106 -87 -19 -39 -28 -108
-20 -152 13 -70 -5 -109 -66 -148 -70 -45 -144 -122 -187 -194 -39 -64 -56
-56 -31 15 33 93 13 183 -53 245 -43 41 -45 38 -63 -62 -15 -87 -4 -137 45
-195 53 -64 54 -89 2 -231 -49 -136 -77 -199 -88 -199 -3 0 -8 30 -11 68 -3
37 -12 81 -21 99 -21 41 -75 73 -121 73 l-37 0 7 -52 c14 -122 51 -181 122
-194 61 -12 53 -43 -35 -136 -44 -46 -63 -58 -96 -63 -67 -10 -166 -45 -250
-87 -64 -32 -78 -36 -73 -21 2 10 19 72 36 138 87 327 159 484 379 831 l107
168 87 37 c48 21 118 47 155 59 160 53 357 169 436 258 11 12 22 22 26 22 4 0
10 -33 12 -74 6 -92 28 -133 88 -163 76 -39 82 -35 74 50 -11 118 -47 181
-111 193 -18 3 -35 10 -38 14 -13 22 159 150 274 205 61 29 63 29 77 10 8 -10
14 -35 14 -54 1 -90 66 -161 148 -161 47 0 47 0 28 80 -25 106 -65 150 -135
150 -46 0 -45 16 2 43 70 41 133 118 187 227 27 55 51 97 53 93 2 -5 12 -31
21 -60 21 -63 63 -103 110 -103 40 0 96 18 96 31 0 5 -13 38 -29 73 -40 89
-78 110 -160 92 -33 -8 -34 -8 -27 20 32 126 186 391 200 343 33 -114 66 -154
125 -153 20 1 47 7 59 13 l22 11 -25 58 c-14 31 -37 68 -52 81 -23 20 -34 23
-75 18 -54 -7 -59 -1 -23 33 14 13 23 25 21 28 -7 7 -65 -36 -120 -87 -30 -28
-46 -38 -41 -26 55 137 55 179 3 277 l-32 60 -18 -24 c-56 -73 -62 -197 -12
-270 41 -61 44 -78 17 -119 -13 -19 -48 -88 -77 -153 l-55 -119 6 90 c7 104
-4 137 -67 198 l-39 38 -12 -29 c-18 -45 -23 -147 -10 -187 7 -20 31 -54 55
-74 23 -21 46 -44 50 -50 10 -17 -47 -123 -97 -179 -39 -44 -123 -101 -134
-91 -3 3 6 30 21 58 35 71 35 143 0 227 -15 34 -30 62 -33 62 -14 0 -55 -75
-67 -122 -16 -62 -5 -125 32 -181 14 -22 23 -44 21 -50 -3 -7 -36 -23 -73 -36
-38 -13 -87 -33 -108 -43 -37 -19 -38 -19 -31 -1 47 111 47 158 -2 252 -20 39
-40 71 -44 71 -15 0 -50 -81 -56 -130 -8 -68 3 -113 40 -162 18 -24 32 -48 32
-55 0 -10 -24 -33 -153 -147 l-23 -20 7 72 c9 96 -10 147 -76 202 -34 29 -51
37 -56 28 -4 -6 -10 -46 -12 -88 -6 -100 17 -158 77 -192 22 -12 41 -28 41
-34 0 -32 -165 -119 -300 -157 -128 -37 -160 -41 -160 -22 0 23 56 274 91 405
44 166 136 350 208 414 25 23 28 17 33 -76 5 -95 48 -145 136 -162 l33 -6 -7
68 c-3 37 -14 85 -24 108 -19 44 -66 84 -98 84 -30 0 -37 18 -15 42 34 39 194
138 222 138 5 0 11 -38 12 -84 3 -66 9 -91 25 -112 28 -39 63 -63 102 -70 l32
-6 0 58 c0 111 -37 181 -106 204 -19 7 -34 16 -32 21 2 6 46 34 98 63 l95 53
8 -46 c15 -86 18 -94 47 -122 22 -23 38 -29 71 -29 l42 0 -7 52 c-4 28 -14 64
-21 79 -19 36 -62 69 -91 69 -36 0 -36 14 2 44 19 15 56 59 84 97 48 70 49 70
55 42 25 -109 58 -143 141 -143 l55 0 -7 38 c-20 110 -80 168 -147 143 -39
-15 -44 5 -18 65 24 54 26 67 6 40 -20 -26 -18 -13 5 54 32 92 22 149 -43 246
l-25 36 -22 -42 c-24 -47 -36 -130 -26 -182 3 -19 22 -53 40 -74 19 -22 36
-49 38 -61 3 -20 -71 -133 -107 -163 -19 -16 -19 -5 1 54 26 77 16 152 -31
223 l-39 58 -22 -50 c-47 -102 -41 -179 22 -261 19 -25 33 -52 30 -59 -10 -27
-168 -116 -181 -103 -3 3 6 26 20 51 40 71 43 134 11 217 -15 39 -31 70 -36
70 -11 0 -55 -69 -68 -109 -20 -59 -15 -114 18 -177 17 -31 27 -61 23 -64 -4
-4 -26 -13 -48 -20 -22 -7 -62 -24 -88 -37 -27 -13 -52 -22 -55 -19 -3 4 2 23
12 43 10 21 20 61 23 91 5 45 2 61 -27 117 -48 95 -55 98 -85 34 -42 -91 -32
-184 28 -255 15 -18 27 -36 27 -42 0 -5 -26 -29 -57 -53 -74 -56 -172 -155
-210 -213 -28 -42 -31 -44 -37 -23 -8 30 -8 412 0 420 4 3 16 0 28 -8 29 -21
79 -18 110 6 22 17 76 105 76 123 0 12 -62 36 -92 36 -47 0 -71 -21 -99 -82
-18 -41 -24 -48 -27 -31 -8 54 54 253 80 253 4 0 21 -14 37 -32 36 -41 75 -42
124 -2 21 16 37 33 37 37 0 5 -15 24 -34 43 -44 44 -79 45 -124 2 -28 -27 -23
-16 28 60 34 50 64 92 66 92 2 0 18 -9 36 -20 64 -39 105 -23 158 61 36 55 36
53 -22 84 -61 33 -117 6 -152 -75 -20 -47 -20 -38 4 55 11 43 20 103 20 133
l0 55 33 -8 c81 -19 118 2 158 93 l28 61 -43 16 c-39 15 -46 15 -80 1 -36 -15
-44 -27 -81 -121 -7 -18 -9 -17 -14 10 -4 21 -9 5 -19 -64 -16 -122 -28 -142
-34 -59 -8 97 -52 148 -128 148 l-31 0 6 -47 c16 -114 51 -169 117 -179 21 -4
38 -12 38 -19 0 -21 -68 -151 -90 -170 -22 -20 -20 -23 -40 58 -16 60 -57 97
-108 97 -70 0 -75 -18 -31 -121 24 -56 66 -84 115 -76 l34 6 -34 -42 c-18 -23
-44 -62 -56 -87 l-23 -45 -22 50 c-38 87 -79 107 -150 76 l-46 -20 31 -60 c42
-84 89 -108 150 -76 17 9 30 14 30 13 0 -2 -7 -37 -16 -78 -12 -56 -16 -131
-16 -290 l0 -215 -24 110 c-43 200 -100 336 -214 505 -21 30 -47 74 -59 98
l-21 42 48 0 c40 0 54 5 75 26 26 26 74 150 63 161 -3 4 -29 7 -57 7 -45 1
-54 -3 -79 -31 -18 -20 -32 -52 -40 -88 -7 -32 -15 -53 -20 -49 -12 13 -60
165 -63 199 -2 28 1 30 42 36 62 8 95 47 111 132 15 79 9 91 -38 82 -72 -13
-104 -55 -117 -153 -4 -29 -9 -52 -11 -50 -5 6 -32 175 -39 250 l-7 68 52 -1
c43 -1 56 3 80 26 29 28 78 150 66 162 -3 4 -29 7 -57 7 -45 1 -54 -3 -79 -31
-17 -19 -33 -53 -41 -88 -9 -40 -15 -52 -19 -39 -9 24 -21 -131 -14 -182 4
-36 3 -35 -16 16 -28 78 -60 103 -122 98 -27 -3 -54 -10 -60 -16 -12 -12 34
-122 64 -149 20 -18 76 -22 114 -9 20 7 22 3 33 -76 11 -72 46 -222 66 -283 4
-11 -3 -4 -15 15 -51 81 -88 97 -149 66 -50 -26 -56 -41 -31 -80 28 -46 76
-86 103 -86 12 0 40 12 60 26 21 14 40 24 42 22 1 -1 16 -33 33 -70 17 -36 51
-98 76 -138 25 -39 46 -73 46 -76 0 -3 -17 8 -37 25 -54 44 -85 41 -139 -13
-24 -24 -44 -48 -44 -54 0 -6 19 -25 41 -43 63 -50 101 -46 154 14 l42 48 31
-68 c78 -171 112 -410 92 -665 -12 -167 -31 -272 -72 -403 l-31 -100 -12 57
c-7 31 -18 70 -25 87 -7 18 -11 33 -9 34 2 1 18 9 34 17 45 23 67 75 63 154
l-3 66 -34 -17 c-57 -29 -76 -65 -76 -139 0 -56 -2 -62 -13 -47 -25 33 -60
107 -75 161 l-16 52 34 14 c49 21 75 68 75 137 0 54 -1 56 -24 52 -44 -9 -78
-56 -84 -115 -4 -39 -7 -48 -13 -33 -6 16 -8 13 -9 -15 l0 -35 -19 41 c-20 43
-36 54 -79 54 -51 0 -55 -12 -28 -73 28 -63 53 -82 102 -72 28 5 34 3 34 -12
0 -10 12 -49 25 -88 14 -38 25 -72 25 -74 0 -2 -11 4 -25 13 -42 27 -80 21
-113 -20 -48 -58 -47 -72 3 -96 38 -19 47 -20 75 -8 20 8 39 28 52 54 l21 41
29 -60 c27 -56 29 -66 24 -148 -3 -60 -11 -102 -25 -130 -18 -37 -245 -327
-256 -327 -6 0 -100 161 -140 240 -53 105 -81 187 -105 303 l-21 105 36 111
c20 60 40 113 44 116 5 2 17 -8 27 -23 42 -65 91 -67 173 -6 8 6 -41 73 -64
88 -34 22 -53 20 -92 -10 -18 -14 -33 -21 -33 -17 0 4 21 46 45 92 50 92 100
161 118 161 7 0 20 -13 29 -30 22 -39 59 -47 100 -23 44 26 45 38 5 78 -40 40
-57 43 -100 14 -18 -11 -8 2 23 30 30 28 72 59 92 68 20 9 35 20 33 23 -3 4 9
10 25 13 56 12 90 72 90 160 0 35 -2 38 -22 32 -81 -24 -110 -61 -116 -145 -3
-40 -9 -60 -17 -60 -7 0 -36 -16 -65 -35 -63 -42 -72 -44 -38 -7 31 31 48 72
48 111 0 35 -29 121 -41 121 -5 0 -23 -21 -39 -47 -34 -54 -40 -128 -15 -177
21 -40 20 -43 -27 -95 -24 -25 -56 -62 -71 -81 -16 -20 -25 -27 -21 -15 25 72
27 104 10 149 -18 47 -63 93 -78 78 -11 -11 -22 -125 -14 -156 3 -14 20 -42
37 -61 l32 -36 -69 -135 -69 -135 -3 88 c-2 48 2 142 8 208 10 117 58 446 65
454 3 2 20 -10 40 -28 54 -47 94 -43 153 14 l47 45 -42 40 c-60 57 -101 56
-156 -2 l-40 -43 6 30 c3 17 11 77 18 135 6 58 14 107 16 109 2 3 16 -8 32
-23 31 -29 73 -36 108 -18 24 13 83 84 83 100 0 6 -15 22 -33 36 -49 37 -100
35 -137 -5 -16 -16 -32 -39 -35 -50 -15 -46 -20 -8 -21 151 l-1 170 37 -6 c51
-8 92 28 118 105 23 67 20 71 -45 71 -49 0 -89 -42 -98 -104 -10 -62 -20 -49
-35 48 -6 43 -22 121 -35 173 l-23 94 38 24 c49 31 72 89 68 170 -2 34 -8 60
-15 62 -7 3 -31 -13 -54 -35 -38 -35 -42 -44 -49 -103 -4 -35 -8 -55 -9 -45 0
11 -3 17 -6 14 -3 -3 6 -70 19 -149 39 -232 39 -237 -2 -173 -29 45 -63 58
-105 40 -18 -7 -40 -23 -50 -34 -19 -20 -18 -22 9 -58 49 -63 105 -73 157 -27
9 9 20 13 24 9 13 -12 16 -293 4 -392 -7 -55 -26 -171 -44 -259 -31 -155 -32
-159 -39 -110 -4 28 -22 80 -39 118 l-33 67 32 30 c18 16 37 41 42 55 11 28
12 122 1 169 l-6 29 -33 -28 c-18 -15 -39 -40 -47 -56 -17 -32 -20 -115 -5
-153 5 -14 7 -26 5 -26 -9 0 -35 60 -55 127 l-20 68 5 -50 5 -50 -28 32 c-36
42 -60 47 -100 23 -48 -29 -50 -46 -11 -86 40 -41 77 -45 110 -9 28 29 39 31
39 9 0 -9 18 -56 40 -105 22 -49 40 -92 40 -95 0 -3 -14 6 -31 20 -53 45 -106
31 -149 -39 -26 -42 -20 -53 40 -80 33 -15 44 -16 70 -5 16 7 40 28 52 48 21
35 21 35 30 11 10 -25 4 -257 -13 -532 -23 -377 34 -639 212 -985 l79 -154
-51 -85 c-120 -199 -221 -434 -268 -625 -14 -59 -29 -108 -32 -108 -4 0 -9 19
-13 42 -4 22 -24 96 -46 162 -64 198 -70 232 -70 374 0 192 20 265 61 216 19
-23 64 -44 94 -44 16 0 42 15 70 41 l45 41 -21 29 c-11 16 -33 36 -49 44 -48
25 -76 19 -121 -27 -23 -24 -39 -35 -36 -26 45 130 61 168 69 168 6 0 21 -9
35 -20 43 -34 76 -26 123 27 l42 48 -31 27 c-48 43 -91 39 -133 -12 l-33 -40
2 137 c1 86 -1 127 -6 108 -5 -16 -9 -51 -10 -77 -1 -66 -16 -60 -18 8 -4 86
-51 144 -118 144 l-28 0 7 -66 c10 -99 47 -154 102 -154 40 0 48 -23 29 -87
-9 -31 -26 -76 -38 -98 l-21 -40 -7 62 c-12 103 -47 147 -124 160 l-38 6 8
-69 c4 -38 12 -78 17 -89 21 -41 62 -75 89 -75 15 0 30 -4 33 -9 3 -5 -6 -36
-19 -70 -15 -37 -25 -81 -25 -113 l-1 -53 -40 105 c-23 58 -61 159 -86 225
l-45 120 5 195 c4 185 9 230 27 230 4 0 24 -13 45 -30 53 -42 93 -40 145 6 22
20 40 42 40 49 0 7 -18 29 -40 49 -55 50 -91 49 -141 -4 -63 -66 -65 -60 -27
75 11 39 33 100 50 137 l31 68 42 -45 c23 -25 50 -45 60 -45 10 0 38 12 62 26
l43 25 -17 31 c-41 69 -91 85 -141 43 -16 -13 -32 -22 -35 -19 -7 7 35 77 67
113 l21 24 -22 -12 c-19 -10 -23 -9 -23 3 0 8 5 18 10 21 21 13 50 86 50 127
0 49 -45 157 -59 142 -5 -5 -21 -31 -35 -58 -34 -64 -34 -126 -1 -192 14 -27
25 -53 25 -57 0 -5 -14 -25 -31 -45 -17 -21 -46 -66 -65 -101 l-34 -64 0 72
c0 44 -6 83 -15 101 -17 33 -60 66 -98 75 -27 7 -27 7 -27 -49 0 -32 5 -77 11
-101 12 -47 61 -105 89 -105 28 0 30 -24 9 -81 -26 -68 -66 -237 -75 -317 -4
-35 -10 -60 -15 -55 -15 15 -58 258 -70 393 -26 310 21 541 172 843 77 153 93
203 104 325 4 45 8 82 9 82 1 0 18 -8 38 -19 62 -31 103 -10 156 80 24 40 23
43 -36 73 -22 11 -44 15 -63 11 -30 -7 -71 -52 -84 -92 -14 -50 -22 -17 -29
121 -7 134 -2 216 12 216 3 0 18 -12 33 -26 53 -50 112 -33 172 50 l20 29 -31
28 c-61 55 -116 51 -162 -13 -22 -29 -30 -36 -30 -22 0 25 45 121 76 161 31
41 31 53 -1 23 -30 -28 -30 -27 -9 34 22 64 15 135 -19 183 -35 50 -64 69 -71
45z m401 -324 c-3 -8 -6 -5 -6 6 -1 11 2 17 5 13 3 -3 4 -12 1 -19z"/>
</g>
</svg>
